<svg width="177" height="177" viewBox="0 0 177 177" fill="none" xmlns="http://www.w3.org/2000/svg">
<path d="M66.375 162.25C70.4481 162.25 73.75 158.948 73.75 154.875C73.75 150.802 70.4481 147.5 66.375 147.5C62.3019 147.5 59 150.802 59 154.875C59 158.948 62.3019 162.25 66.375 162.25Z" stroke="black" stroke-width="2" stroke-linecap="round" stroke-linejoin="round"/>
<path d="M147.5 162.25C151.573 162.25 154.875 158.948 154.875 154.875C154.875 150.802 151.573 147.5 147.5 147.5C143.427 147.5 140.125 150.802 140.125 154.875C140.125 158.948 143.427 162.25 147.5 162.25Z" stroke="black" stroke-width="2" stroke-linecap="round" stroke-linejoin="round"/>
<path d="M7.375 7.375H36.875L56.64 106.126C57.3144 109.522 59.1616 112.572 61.8581 114.742C64.5547 116.913 67.9289 118.066 71.39 118H143.075C146.536 118.066 149.91 116.913 152.607 114.742C155.303 112.572 157.151 109.522 157.825 106.126L169.625 44.25H44.25" stroke="black" stroke-width="2" stroke-linecap="round" stroke-linejoin="round"/>
</svg>
